<svg xmlns="http://www.w3.org/2000/svg" width="225" height="225" viewBox="0 0 225 225" fill="none"><metadata><rdf:RDF xmlns:rdf="http://www.w3.org/1999/02/22-rdf-syntax-ns#" xmlns:dc="http://purl.org/dc/elements/1.1/"><rdf:Description><dc:creator>RealFaviconGenerator</dc:creator><dc:source>https://realfavicongenerator.net</dc:source></rdf:Description></rdf:RDF></metadata><rect width="225" height="225" fill="white"></rect><path d="M61 173.407V52H100.6C113.42 52 124.556 54.6074 134.007 59.8222C143.568 64.9284 150.956 72.0444 156.17 81.1704C161.385 90.1877 163.993 100.672 163.993 112.622C163.993 124.464 161.385 135.002 156.17 144.237C150.956 153.363 143.568 160.533 134.007 165.748C124.556 170.854 113.42 173.407 100.6 173.407H61ZM83.163 153.852H101.089C109.346 153.852 116.462 152.168 122.437 148.8C128.521 145.323 133.247 140.543 136.615 134.459C139.983 128.267 141.667 120.988 141.667 112.622C141.667 104.148 139.983 96.8691 136.615 90.7852C133.247 84.7012 128.521 79.9753 122.437 76.6074C116.462 73.2395 109.346 71.5556 101.089 71.5556H83.163V153.852Z" fill="#FF6900"></path></svg>